HIERARCHY
ROOT Hips
{
	OFFSET 0.000000 8.830580 0.000000
	CHANNELS 6 Xposition Yposition Zposition Zrotation Yrotation Xrotation 
	JOINT Spine
	{
		OFFSET 0.000000 0.010000 0.000000
		CHANNELS 3 Zrotation Yrotation Xrotation
		JOINT Spine1
		{
			OFFSET 0.000000 2.459130 0.000000
			CHANNELS 3 Zrotation Yrotation Xrotation
			JOINT Neck
			{
				OFFSET 0.000000 2.484630 0.000000
				CHANNELS 3 Zrotation Yrotation Xrotation
				JOINT Head_virtual
				{
					OFFSET 0.000000 0.000000 0.000000
					CHANNELS 3 Zrotation Yrotation Xrotation
					JOINT Head
					{
						OFFSET 0.000000 0.927525 0.000000
						CHANNELS 3 Zrotation Yrotation Xrotation
						End Site
						{
							OFFSET 0.000000 0.000000 0.000000
						}
					}
				}
				JOINT LeftUpArm_virtual
				{
					OFFSET 0.000000 0.000000 0.000000
					CHANNELS 3 Zrotation Yrotation Xrotation
					JOINT LeftUpArm
					{
						OFFSET 1.248820 0.000000 0.000000
						CHANNELS 3 Zrotation Yrotation Xrotation
						JOINT LeftForeArm
						{
							OFFSET 2.597580 0.000000 0.000000
							CHANNELS 3 Zrotation Yrotation Xrotation
							JOINT LeftHand
							{
								OFFSET 2.455420 0.000000 0.000000
								CHANNELS 3 Zrotation Yrotation Xrotation
								End Site
								{
									OFFSET 0.000000 0.000000 0.000000
								}
							}
						}
					}
				}
				JOINT RightUpArm_virtual
				{
					OFFSET -0.000000 -0.000000 -0.000000
					CHANNELS 3 Zrotation Yrotation Xrotation
					JOINT RightUpArm
					{
						OFFSET -1.248820 -0.000000 -0.000000
						CHANNELS 3 Zrotation Yrotation Xrotation
						JOINT RightForeArm
						{
							OFFSET -2.597580 -0.000000 -0.000000
							CHANNELS 3 Zrotation Yrotation Xrotation
							JOINT RightHand
							{
								OFFSET -2.455420 -0.000000 -0.000000
								CHANNELS 3 Zrotation Yrotation Xrotation
								End Site
								{
									OFFSET 0.000000 0.000000 0.000000
								}
							}
						}
					}
				}
			}
		}
	}
	JOINT LeftUpLeg
	{
		OFFSET 1.271939 0.000000 0.000000
		CHANNELS 3 Zrotation Yrotation Xrotation
		JOINT LeftLowLeg
		{
			OFFSET 0.000000 -4.342910 0.000000
			CHANNELS 3 Zrotation Yrotation Xrotation
			JOINT LeftFoot
			{
				OFFSET 0.000000 -4.487670 0.000000
				CHANNELS 3 Zrotation Yrotation Xrotation
				JOINT LeftToeBase
				{
					OFFSET 0.000000 0.000000 1.515070
					CHANNELS 3 Zrotation Yrotation Xrotation
					End Site
					{
						OFFSET 0.000000 0.000000 0.000000
					}
				}
			}
		}
	}
	JOINT RightUpLeg
	{
		OFFSET -1.271939 0.000000 0.000000
		CHANNELS 3 Zrotation Yrotation Xrotation
		JOINT RightLowLeg
		{
			OFFSET 0.000000 -4.342910 0.000000
			CHANNELS 3 Zrotation Yrotation Xrotation
			JOINT RightFoot
			{
				OFFSET 0.000000 -4.487670 0.000000
				CHANNELS 3 Zrotation Yrotation Xrotation
				JOINT RightToeBase
				{
					OFFSET 0.000000 0.000000 1.515070
					CHANNELS 3 Zrotation Yrotation Xrotation
					End Site
					{
						OFFSET 0.000000 0.000000 0.000000
					}
				}
			}
		}
	}
}
MOTION
Frames: 18
Frame Time: 0.041667
-18.204869 9.226848 39.677752 -175.465244 -1.266976 -173.141389 2.397664 -1.091180 -9.378646 0.779553 -1.364233 4.342893 0.000000 0.000000 0.000000 -2.040673 -0.144080 -6.092818 7.801311 4.553081 -50.100265 0.005868 14.282400 -5.494510 -8.107100 -7.317690 -27.126699 0.000000 -20.046101 0.000000 31.537100 9.263860 21.336300 6.794540 -12.508700 0.418874 8.625700 0.256848 -34.956501 0.000000 21.736099 0.000000 -20.024900 -4.322130 25.475700 4.281146 2.320667 -5.418057 0.000000 0.000000 7.025860 8.873862 2.284829 7.276526 0.000000 0.000000 -36.297600 2.580529 7.439282 -4.019529 0.000000 0.000000 6.530130 7.957985 -7.046449 9.452149 0.000000 0.000000 -27.691300 
-18.205327 9.226770 39.676952 -175.464901 -1.267952 -173.142565 2.403246 -1.086193 -9.376870 0.767325 -1.360792 4.327023 0.000000 0.000000 0.000000 -2.029209 -0.137373 -6.096051 7.762008 4.579256 -50.090271 0.141232 14.301600 -5.486030 -8.404930 -7.333420 -27.322700 0.000000 -20.269300 0.000000 31.928400 9.811640 21.747101 6.789390 -12.484800 0.416172 8.660840 0.216518 -35.042301 0.000000 21.715500 0.000000 -20.028601 -4.287140 25.529600 4.279679 2.326148 -5.414084 0.000000 0.000000 7.030450 8.872757 2.275206 7.268901 0.000000 0.000000 -36.282499 2.579231 7.423193 -4.020289 0.000000 0.000000 6.545000 7.965413 -7.026490 9.444100 0.000000 0.000000 -27.698000 
-18.205819 9.226745 39.676472 -175.463012 -1.276778 -173.151437 2.415628 -1.084530 -9.362773 0.752736 -1.362557 4.315743 0.000000 0.000000 0.000000 -2.022394 -0.132932 -6.110655 7.737575 4.595948 -50.089854 0.159993 14.297500 -5.493980 -8.472240 -7.312470 -27.391100 0.000000 -20.297400 0.000000 32.018101 9.844300 21.889799 6.795160 -12.484500 0.413732 8.676160 0.199375 -35.090500 0.000000 21.725300 0.000000 -20.058201 -4.272140 25.516199 4.279802 2.323476 -5.409691 0.000000 0.000000 7.043070 8.864542 2.270654 7.252885 0.000000 0.000000 -36.266600 2.580782 7.413212 -4.013148 0.000000 0.000000 6.555600 7.964043 -7.025546 9.439536 0.000000 0.000000 -27.699700 
-18.206134 9.226732 39.675569 -175.466181 -1.293308 -173.162047 2.459534 -1.053777 -9.332943 0.655263 -1.344703 4.272919 0.000000 0.000000 0.000000 -1.998232 -0.122731 -6.060622 7.790301 4.638124 -50.181523 0.194435 14.250800 -5.469870 -8.469680 -7.298880 -27.400999 0.000000 -20.277500 0.000000 31.988800 9.774280 21.768000 6.853370 -12.545300 0.402317 8.666460 0.191038 -35.056702 0.000000 21.725500 0.000000 -20.065100 -4.257730 25.537300 4.277370 2.314682 -5.400209 0.000000 0.000000 7.048030 8.880715 2.262885 7.255168 0.000000 0.000000 -36.298599 2.580077 7.405591 -3.997438 0.000000 0.000000 6.560150 7.956719 -7.039812 9.427543 0.000000 0.000000 -27.690200 
-18.207247 9.226589 39.674683 -175.467034 -1.296704 -173.181048 2.476497 -1.047480 -9.297078 0.634651 -1.343351 4.264864 0.000000 0.000000 0.000000 -1.951454 -0.140866 -6.113843 7.706293 4.680108 -50.185527 0.175659 14.261200 -5.473980 -8.491120 -7.275590 -27.303699 0.000000 -20.274200 0.000000 32.013699 9.816330 21.762300 6.874220 -12.556800 0.389631 8.637970 0.171401 -34.987000 0.000000 21.721201 0.000000 -20.025400 -4.246820 25.555099 4.269948 2.332137 -5.381300 0.000000 0.000000 7.056440 8.893595 2.251253 7.244381 0.000000 0.000000 -36.311001 2.576202 7.423211 -3.984911 0.000000 0.000000 6.588420 7.959247 -7.054628 9.408376 0.000000 0.000000 -27.705100 
-18.207812 9.226461 39.674349 -175.470454 -1.301474 -173.182816 2.479431 -1.049798 -9.290993 0.631507 -1.346520 4.272152 0.000000 0.000000 0.000000 -1.929835 -0.158479 -6.147774 7.693705 4.682079 -50.188843 0.153420 14.260000 -5.460170 -8.461990 -7.247150 -27.207899 0.000000 -20.229099 0.000000 31.933599 9.800330 21.741400 6.869390 -12.561200 0.399898 8.653680 0.179000 -35.037800 0.000000 21.720400 0.000000 -20.054600 -4.250520 25.564600 4.265036 2.330711 -5.381945 0.000000 0.000000 7.064740 8.895323 2.242633 7.238164 0.000000 0.000000 -36.292400 2.570551 7.411602 -3.984473 0.000000 0.000000 6.596660 7.962136 -7.048212 9.393258 0.000000 0.000000 -27.688500 
-18.208386 9.226367 39.673715 -175.466900 -1.308557 -173.186364 2.455450 -1.089575 -9.301857 0.701147 -1.379078 4.327856 0.000000 0.000000 0.000000 -1.986268 -0.130387 -6.219974 7.713868 4.653549 -50.195628 0.089666 14.312300 -5.478730 -8.465380 -7.204430 -27.167000 0.000000 -20.238501 0.000000 31.900600 9.794040 21.787300 6.825600 -12.499500 0.396666 8.691380 0.180549 -35.153198 0.000000 21.730700 0.000000 -20.090000 -4.213700 25.571199 4.266389 2.322809 -5.378533 0.000000 0.000000 7.070430 8.883529 2.240911 7.225435 0.000000 0.000000 -36.301901 2.571359 7.406987 -3.981779 0.000000 0.000000 6.608560 7.973569 -7.041149 9.388145 0.000000 0.000000 -27.696100 
-18.208808 9.226206 39.673096 -175.466044 -1.306668 -173.184155 2.457879 -1.088588 -9.301904 0.701730 -1.378810 4.338089 0.000000 0.000000 0.000000 -1.987565 -0.146250 -6.258609 7.815711 4.607603 -50.202850 0.083832 14.289900 -5.471130 -8.495650 -7.145350 -27.202900 0.000000 -20.261700 0.000000 31.931700 9.785760 21.794901 6.819560 -12.493300 0.373927 8.717390 0.164736 -35.141899 0.000000 21.754299 0.000000 -20.090799 -4.230950 25.589001 4.265147 2.326796 -5.374804 0.000000 0.000000 7.066780 8.889152 2.239806 7.220226 0.000000 0.000000 -36.303699 2.570778 7.416075 -3.981881 0.000000 0.000000 6.612430 7.969773 -7.051051 9.379196 0.000000 0.000000 -27.701600 
-18.209201 9.226234 39.672611 -175.466692 -1.308747 -173.180602 2.459697 -1.088659 -9.301224 0.695868 -1.379511 4.347472 0.000000 0.000000 0.000000 -1.929688 -0.170713 -6.249874 7.724507 4.661684 -50.226261 0.074384 14.290300 -5.464510 -8.498010 -7.124980 -27.205601 0.000000 -20.245501 0.000000 31.969000 9.766520 21.701500 6.852240 -12.485800 0.375737 8.685390 0.154969 -35.103802 0.000000 21.748501 0.000000 -20.056299 -4.227590 25.566900 4.262609 2.323301 -5.372269 0.000000 0.000000 7.061320 8.895291 2.242326 7.222230 0.000000 0.000000 -36.297899 2.567925 7.418797 -3.979839 0.000000 0.000000 6.608400 7.965176 -7.058595 9.377617 0.000000 0.000000 -27.695800 
-18.209701 9.226084 39.671909 -175.465760 -1.301203 -173.201052 2.467032 -1.077150 -9.286165 0.684165 -1.370444 4.365491 0.000000 0.000000 0.000000 -1.901815 -0.189206 -6.261557 7.736865 4.661763 -50.221934 0.075813 14.272900 -5.469350 -8.512470 -7.097810 -27.194500 0.000000 -20.260799 0.000000 31.988701 9.750370 21.717899 6.868830 -12.483300 0.358319 8.673620 0.131147 -35.035301 0.000000 21.744400 0.000000 -20.040600 -4.204560 25.579700 4.263859 2.312531 -5.342594 0.000000 0.000000 7.058710 8.885778 2.241158 7.209514 0.000000 0.000000 -36.281799 2.568280 7.432729 -3.951323 0.000000 0.000000 6.600630 7.970647 -7.060664 9.372862 0.000000 0.000000 -27.701100 
-18.210070 9.226064 39.670613 -175.457146 -1.300159 -173.148027 2.471925 -1.073844 -9.331033 0.692573 -1.368109 4.371939 0.000000 0.000000 0.000000 -1.880065 -0.191928 -6.241904 7.734997 4.682435 -50.231828 0.060600 14.284300 -5.456990 -8.568550 -7.065350 -27.320200 0.000000 -20.332899 0.000000 32.017899 9.703920 21.801100 6.880900 -12.445600 0.397109 8.707720 0.108205 -35.194500 0.000000 21.730700 0.000000 -20.135200 -4.149600 25.531700 4.267740 2.286478 -5.386901 0.000000 0.000000 7.057000 8.892048 2.286842 7.206220 0.000000 0.000000 -36.300699 2.571205 7.410656 -3.976457 0.000000 0.000000 6.558900 7.948496 -7.054165 9.395113 0.000000 0.000000 -27.703400 
-18.210446 9.226033 39.670008 -175.455741 -1.289791 -173.129250 2.475351 -1.065822 -9.350092 0.696982 -1.360948 4.378358 0.000000 0.000000 0.000000 -1.879127 -0.189807 -6.221824 7.723613 4.690452 -50.235237 0.045999 14.276700 -5.465320 -8.585540 -7.031350 -27.309200 0.000000 -20.379601 0.000000 32.030701 9.685050 21.772900 6.885820 -12.443900 0.389130 8.724400 0.097671 -35.180401 0.000000 21.754900 0.000000 -20.227501 -4.160580 25.519400 4.268407 2.294566 -5.396310 0.000000 0.000000 7.053650 8.893529 2.273888 7.199679 0.000000 0.000000 -36.273600 2.567274 7.428204 -3.987790 0.000000 0.000000 6.547750 7.949737 -7.060527 9.400212 0.000000 0.000000 -27.703800 
-18.210964 9.225967 39.668945 -175.456464 -1.269108 -173.117588 2.482482 -1.053115 -9.362395 0.690341 -1.350403 4.392823 0.000000 0.000000 0.000000 -1.876757 -0.176167 -6.183410 7.708796 4.717391 -50.251613 0.015250 14.267000 -5.456980 -8.566820 -6.990750 -27.209299 0.000000 -20.398100 0.000000 32.035702 9.681060 21.776199 6.911140 -12.442400 0.367964 8.757140 0.102637 -35.227699 0.000000 21.782000 0.000000 -20.326900 -4.104320 25.476801 4.261770 2.313916 -5.387005 0.000000 0.000000 7.034930 8.897753 2.282554 7.200684 0.000000 0.000000 -36.290001 2.562165 7.415912 -3.990170 0.000000 0.000000 6.538890 7.952793 -7.035766 9.400612 0.000000 0.000000 -27.699900 
-18.210931 9.225903 39.667876 -175.451577 -1.259718 -173.105805 2.485703 -1.049461 -9.383328 0.700075 -1.347625 4.423426 0.000000 0.000000 0.000000 -1.908765 -0.151498 -6.169547 7.721349 4.716574 -50.267768 -0.021476 14.252600 -5.456300 -8.541380 -6.940950 -27.140301 0.000000 -20.410000 0.000000 31.967800 9.642280 21.702200 6.933620 -12.451100 0.341944 8.778690 0.133304 -35.249500 0.000000 21.785101 0.000000 -20.387501 -4.052050 25.382601 4.265048 2.333957 -5.387102 0.000000 0.000000 7.029680 8.884212 2.270046 7.188211 0.000000 0.000000 -36.286301 2.565435 7.430165 -3.996128 0.000000 0.000000 6.538980 7.949572 -7.042491 9.400427 0.000000 0.000000 -27.699500 
-18.211241 9.225826 39.667142 -175.451756 -1.243070 -173.093179 2.482490 -1.036767 -9.401824 0.718447 -1.334179 4.454380 0.000000 0.000000 0.000000 -1.920401 -0.150494 -6.158143 7.701469 4.715518 -50.282987 -0.058233 14.233300 -5.421610 -8.561160 -6.908530 -27.258301 0.000000 -20.464500 0.000000 31.978800 9.609820 21.733101 6.961660 -12.430900 0.366420 8.789200 0.099547 -35.243500 0.000000 21.817200 0.000000 -20.419201 -4.052730 25.211000 4.262793 2.326412 -5.389215 0.000000 0.000000 7.027320 8.891239 2.294257 7.185890 0.000000 0.000000 -36.275499 2.560274 7.442336 -4.003945 0.000000 0.000000 6.535260 7.944267 -7.037145 9.400218 0.000000 0.000000 -27.693400 
-18.211336 9.225806 39.666257 -175.449690 -1.240341 -173.087981 2.478112 -1.032898 -9.415454 0.745254 -1.329026 4.481278 0.000000 0.000000 0.000000 -1.936725 -0.154909 -6.122597 7.679569 4.707520 -50.306594 -0.094158 14.228100 -5.429280 -8.632910 -6.885340 -27.378000 0.000000 -20.566799 0.000000 32.037800 9.543320 21.723900 6.985270 -12.420800 0.394129 8.815340 0.087153 -35.302101 0.000000 21.864401 0.000000 -20.383600 -4.094350 25.349300 4.264904 2.319951 -5.389150 0.000000 0.000000 7.029390 8.889646 2.301669 7.181825 0.000000 0.000000 -36.282600 2.562487 7.434452 -4.004205 0.000000 0.000000 6.535300 7.936030 -7.031145 9.401193 0.000000 0.000000 -27.688900 
-18.211626 9.225710 39.665534 -175.446272 -1.237837 -173.076883 2.486485 -1.024937 -9.431953 0.764866 -1.323176 4.496861 0.000000 0.000000 0.000000 -1.982443 -0.133709 -6.078927 7.677126 4.690416 -50.297946 -0.164599 14.173600 -5.428240 -8.661560 -6.792100 -27.476000 0.000000 -20.681900 0.000000 32.080399 9.421340 21.735399 7.020180 -12.414600 0.411861 8.841570 0.072936 -35.354000 0.000000 21.931700 0.000000 -20.389400 -4.071170 25.320499 4.265602 2.305930 -5.397854 0.000000 0.000000 7.034380 8.892911 2.324422 7.177476 0.000000 0.000000 -36.285999 2.563920 7.430646 -4.012450 0.000000 0.000000 6.538110 7.931816 -7.030708 9.394946 0.000000 0.000000 -27.694500 
-18.211967 9.225559 39.664347 -175.446004 -1.247986 -173.072195 2.543569 -0.987291 -9.422161 0.685781 -1.301821 4.458103 0.000000 0.000000 0.000000 -1.966945 -0.142996 -6.000894 7.678275 4.698915 -50.298683 -0.261234 14.045200 -5.397130 -8.544070 -6.600110 -27.308100 0.000000 -20.792601 0.000000 31.678301 8.752020 21.205999 7.086330 -12.469100 0.460927 8.916720 0.052092 -35.423801 0.000000 22.092100 0.000000 -20.413000 -4.057470 25.235100 4.267362 2.281944 -5.395741 0.000000 0.000000 7.034290 8.879413 2.328833 7.166720 0.000000 0.000000 -36.263700 2.564961 7.390237 -4.009742 0.000000 0.000000 6.541080 7.927011 -7.004784 9.391284 0.000000 0.000000 -27.693000 
